<svg xmlns="http://www.w3.org/2000/svg" width="15.360000000000007" height="15.039999999999985" fill-rule="evenodd" clip-rule="evenodd" style=""><rect id="backgroundrect" width="100%" height="100%" x="0" y="0" fill="none" stroke="none" class="" style=""/><g class="currentLayer" style=""><title>Layer 1</title><path d="M7.680000163881244,0.5959690522026566 c3.8214882338348475,0 6.924031225429287,3.102542991594439 6.924031225429287,6.924031225429287 s-3.102542991594439,6.924031225429287 -6.924031225429287,6.924031225429287 s-6.924031225429287,-3.102542991594439 -6.924031225429287,-6.924031225429287 s3.102542991594439,-6.924031225429287 6.924031225429287,-6.924031225429287 zm0,0.5770026021191078 c3.5029827974650996,0 6.347028623310179,2.8440458258450807 6.347028623310179,6.347028623310179 s-2.8440458258450807,6.347028623310179 -6.347028623310179,6.347028623310179 s-6.347028623310179,-2.8440458258450807 -6.347028623310179,-6.347028623310179 s2.8440458258450807,-6.347028623310179 6.347028623310179,-6.347028623310179 zm4.03901821483375,4.302708404002183 l-5.19590843208256,5.519029889269261 l-2.8821279975849405,-3.3841202614285644 l0.4390989802126412,-0.3744746887753014 l2.464378113650707,2.8942450522294427 l4.754501441461445,-5.049926773746427 l0.4200578943427106,0.395246782451589 z" id="svg_1" class="selected" fill="#007bff" fill-opacity="1"/></g></svg>