<svg xmlns="http://www.w3.org/2000/svg" width="15.539682462792697" height="15.222222154943616"><rect id="backgroundrect" width="100%" height="100%" x="0" y="0" fill="none" stroke="none" class="" style=""/><g class="currentLayer" style=""><title>Layer 1</title><path d="M7.480859299066903,2.0902582858800414 c3.0599008883142447,0 5.549330591792246,2.489429703478001 5.549330591792246,5.549330591792246 s-2.489429703478001,5.549330591792246 -5.549330591792246,5.549330591792246 s-5.549330591792246,-2.489429703478001 -5.549330591792246,-5.549330591792246 s2.489429703478001,-5.549330591792246 5.549330591792246,-5.549330591792246 zm0,-1.1098661183584493 c-3.677541383180721,0 -6.659196710150695,2.9816553269699737 -6.659196710150695,6.659196710150695 s2.9816553269699737,6.659196710150695 6.659196710150695,6.659196710150695 s6.659196710150695,-2.9816553269699737 6.659196710150695,-6.659196710150695 s-2.9816553269699737,-6.659196710150695 -6.659196710150695,-6.659196710150695 zm3.3295983550753476,9.177482932706017 l-2.5482526077510004,-2.5238355531471135 l2.522725687028755,-2.5454779424551033 l-0.7857852117977825,-0.7785710820284525 l-2.5221707539695757,2.546587808573462 l-2.5460328755142827,-2.5210608878512173 l-0.7796809481468107,0.7796809481468107 l2.548807540810179,2.52605528538383 l-2.5232806200879336,2.5482526077510004 l0.7796809481468107,0.7796809481468107 l2.5277200845613677,-2.550472339987716 l2.54769767469182,2.524945419265472 l0.7785710820284525,-0.7857852117977825 z" id="svg_1" class="selected" fill="#e84141" fill-opacity="1" stroke-dasharray="none" opacity="1" filter=""/></g><defs><filter id="f008" xmlns:inkscape="http://www.inkscape.org/namespaces/inkscape" inkscape:label="Jigsaw piece" inkscape:menu="Bevels" inkscape:menu-tooltip="Low, sharp bevel" color-interpolation-filters="sRGB">
            <feSpecularLighting in="SourceAlpha" surfaceScale="1" specularConstant="2" specularExponent="18.5">
                <feDistantLight elevation="30" azimuth="225"/>
            </feSpecularLighting>
            <feComposite result="result0" operator="atop" in2="SourceGraphic"/>
            <feMorphology radius="2" result="result1" in="SourceAlpha" operator="dilate"/>
            <feComposite in="result0" in2="result1"/>
        </filter></defs></svg>